<svg width="18" height="12" viewBox="0 0 18 12" fill="none" xmlns="http://www.w3.org/2000/svg">
<path d="M15.3643 6.00016L10.9535 10.4109C10.6281 10.7363 10.6281 11.264 10.9535 11.5894C11.2789 11.9149 11.8066 11.9149 12.132 11.5894L17.132 6.58942C17.4575 6.26398 17.4575 5.73634 17.132 5.41091L12.132 0.410907C11.8066 0.0854697 11.2789 0.0854697 10.9535 0.410907C10.6281 0.736344 10.6281 1.26398 10.9535 1.58942L15.3643 6.00016Z" fill="#838895"/>
<path d="M1.54277 6.83349L15.7094 6.8335C16.1697 6.8335 16.5428 6.4604 16.5428 6.00016C16.5428 5.53993 16.1697 5.16683 15.7094 5.16683L1.54277 5.16683C1.08253 5.16683 0.709433 5.53992 0.709433 6.00016C0.709433 6.4604 1.08253 6.83349 1.54277 6.83349Z" fill="#838895"/>
<path d="M16.5428 5.16683L15.7094 5.16683C15.2492 5.16683 14.8761 5.53993 14.8761 6.00016C14.8761 6.4604 15.2492 6.8335 15.7094 6.8335L16.5428 6.8335C17.003 6.8335 17.3761 6.4604 17.3761 6.00016C17.3761 5.53993 17.003 5.16683 16.5428 5.16683Z" fill="#838895"/>
</svg>
