<svg width="23" height="22" viewBox="0 0 23 22" fill="none" xmlns="http://www.w3.org/2000/svg">
<path fill-rule="evenodd" clip-rule="evenodd" d="M11.9487 22C18.0239 22 22.9487 17.0751 22.9487 11C22.9487 4.92487 18.0239 0 11.9487 0C5.8736 0 0.94873 4.92487 0.94873 11C0.94873 17.0751 5.8736 22 11.9487 22ZM11.9487 20C6.97817 20 2.94873 15.9706 2.94873 11C2.94873 6.02944 6.97817 2 11.9487 2C16.9193 2 20.9487 6.02944 20.9487 11C20.9487 15.9706 16.9193 20 11.9487 20ZM12.9487 13C12.9487 12.3159 13.1651 11.9628 13.6749 11.6034C13.7365 11.5599 13.8995 11.4563 14.0604 11.3541C14.2159 11.2553 14.3693 11.1578 14.4278 11.1168C14.559 11.0247 14.6715 10.9339 14.7737 10.8319C15.5204 10.087 15.9487 9.07616 15.9487 8C15.9487 5.79086 14.1579 4 11.9487 4C10.7867 4 9.70315 4.49961 8.94924 5.35361C8.60727 5.74099 8.34255 6.19142 8.17162 6.68093C7.98954 7.20234 8.26462 7.77262 8.78603 7.9547C9.30743 8.13678 9.87772 7.8617 10.0598 7.34029C10.145 7.09641 10.2772 6.87132 10.4486 6.67722C10.8267 6.24886 11.3665 6 11.9487 6C13.0533 6 13.9487 6.89543 13.9487 8C13.9487 8.53941 13.7356 9.04252 13.3612 9.41597C13.3506 9.42651 13.3236 9.44838 13.2791 9.4796C13.2596 9.49326 13.1843 9.54097 13.0865 9.60286C12.9039 9.71851 12.6431 9.88369 12.5223 9.96888C11.5178 10.6772 10.9487 11.6058 10.9487 13C10.9487 13.5523 11.3964 14 11.9487 14C12.501 14 12.9487 13.5523 12.9487 13ZM12.6558 16.7071C13.0464 16.3166 13.0464 15.6834 12.6558 15.2929C12.2653 14.9024 11.6321 14.9024 11.2416 15.2929C10.8511 15.6834 10.8511 16.3166 11.2416 16.7071C11.6321 17.0976 12.2653 17.0976 12.6558 16.7071Z" fill="white"/>
</svg>
