<svg width="19" height="18" viewBox="0 0 19 18" fill="none" xmlns="http://www.w3.org/2000/svg">
<path fill-rule="evenodd" clip-rule="evenodd" d="M12 0C12.5523 0 13 0.447715 13 1V8H15.5858L14.2929 6.70711C13.9024 6.31658 13.9024 5.68342 14.2929 5.29289C14.6834 4.90237 15.3166 4.90237 15.7071 5.29289L18.7071 8.29289C18.9 8.48581 18.9976 8.73793 19 8.99077L14.2929 11.2929L15.5858 10H13V17C13 17.5523 12.5523 18 12 18H1C0.447715 18 0 17.5523 0 17V1C0 0.447715 0.447715 0 1 0H12ZM11 8H8.5C7.94772 8 7.5 8.44771 7.5 9C7.5 9.55229 7.94772 10 8.5 10H11V16H2V2H11V8ZM14.2929 11.2929L19 9C19 9.016 18.9996 9.03199 18.9989 9.04797C18.9874 9.28768 18.8902 9.52405 18.7071 9.70711L15.7071 12.7071C15.3166 13.0976 14.6834 13.0976 14.2929 12.7071C13.9024 12.3166 13.9024 11.6834 14.2929 11.2929Z" fill="white"/>
</svg>
